<?xml version="1.0" encoding="utf-8"?>
<!DOCTYPE svg PUBLIC "-//W3C//DTD SVG 1.0//EN" "http://www.w3.org/TR/2001/REC-SVG-20010904/DTD/svg10.dtd">
<svg version="1.0" xmlns="http://www.w3.org/2000/svg" width="4096px" height="4096px" viewBox="0 0 4096 4096" preserveAspectRatio="xMidYMid meet">
 <g fill="#0d1b31">
  <path d="M 0 2048 l 0 -2048 2048 0 2048 0 0 2048 0 2048 -2048 0 -2048 0 0 -2048 z  m 2028 866 l 0 -358 -118 0 -118 0 0 241.60 0 241.20 -64.80 2.40 c -53.60 2 -415.60 1.20 -462 -0.80 l -13.20 -0.40 0 -986 0 -986 270 0 270 0 0 242 0 242 118 0 118 0 0 -358 0 -358 -506 0 -506 0 0 1218 0 1218 506 0 506 0 0 -358 z  m 1052 -860 l 0 -1218 -304 0 -304 0 0 116 0 116 186 0 186 0 0 985.60 0 985.60 -8.80 2.40 c -5.20 1.20 -88.80 2.40 -186 2.40 l -177.20 0 0 114 0 114 304 0 304 0 0 -1218 z  m -2220 554 l 0 -80 -204.80 -206.40 c -189.20 -190.40 -205.20 -207.60 -206.40 -220.80 -1.20 -14.40 2.40 -18 205.20 -220.80 l 206 -206 0 -82.80 0 -83.20 -60 0 -59.60 0 -252 253.20 -252 252.80 -0.40 85.60 0 85.60 250.80 251.60 250.80 251.20 61.20 0 61.20 0 0 -80 z  m 2749.20 -170.80 l 250.80 -251.20 0 -86.40 0 -86.40 -250.40 -252.80 -250.40 -252.80 -60.80 1.20 -60.40 1.20 -1.20 82 -0.80 81.60 206 206.40 c 194 194 206 206.80 206 220 -0.40 13.20 -14.40 28 -206 222 l -206 207.60 0 79.20 0 79.20 61.20 0 61.60 0 250.40 -250.80 z "/>
 </g>
 <g fill="#8323df">
  <path d="M 1004 2054 l 0 -1230 518 0 518 0 0 370 0 370 -130 0 -130 0 0 -242 0 -242 -258 0 -258 0 0 974 0 974 13.20 0.40 c 58.40 1.60 400.80 2 446 0.40 l 56.80 -2 0 -241.60 0 -241.20 130 0 130 0 0 370 0 370 -518 0 -518 0 0 -1230 z "/>
  <path d="M 2460 3158 l 0 -126 177.20 0 c 97.20 0 180.80 -1.20 186 -2.40 l 8.80 -2.40 0 -973.60 0 -973.60 -186 0 -186 0 0 -128 0 -128 316 0 316 0 0 1230 0 1230 -316 0 -316 0 0 -126 z "/>
  <path d="M 474.80 2448.80 l -250.80 -251.60 0 -97.60 0.40 -97.60 252 -252.80 252 -253.20 71.60 0 72 0 0 94.80 0 95.20 -206.80 206.80 -206.80 206.80 187.60 189.20 c 102.80 104 196 197.60 206.80 208 l 19.20 18.40 0 92.40 0 92.40 -73.20 0 -73.20 0 -250.80 -251.20 z "/>
  <path d="M 3224 2609.20 l 0 -91.20 105.20 -106.40 c 57.60 -58.80 150.80 -152.80 206.80 -209.20 l 101.60 -102.80 -206.80 -206.80 -206.80 -207.20 0.80 -93.60 1.20 -94 72.40 -1.20 72.80 -0.80 250.40 252.40 250.40 252.80 0 98.40 0 98.40 -250.80 251.20 -250.40 250.80 -73.60 0 -73.20 0 0 -90.80 z "/>
 </g>
</svg>