<?xml version="1.0" encoding="utf-8"?>
<!DOCTYPE svg PUBLIC "-//W3C//DTD SVG 1.0//EN" "http://www.w3.org/TR/2001/REC-SVG-20010904/DTD/svg10.dtd">
<svg version="1.0" xmlns="http://www.w3.org/2000/svg" width="4096px" height="4096px" viewBox="0 0 4096 4096" preserveAspectRatio="xMidYMid meet">
 <g fill="#8323df">
  <path d="M 1004 2054 l 0 -1230 518 0 518 0 0 370 0 370 -130 0 -130 0 0 -242 0 -242 -258 0 -258 0 0 974 0 974 13.20 0.40 c 58.40 1.60 400.80 2 446 0.40 l 56.80 -2 0 -241.60 0 -241.20 130 0 130 0 0 370 0 370 -518 0 -518 0 0 -1230 z "/>
  <path d="M 2460 3158 l 0 -126 177.20 0 c 97.20 0 180.80 -1.20 186 -2.40 l 8.80 -2.40 0 -973.60 0 -973.60 -186 0 -186 0 0 -128 0 -128 316 0 316 0 0 1230 0 1230 -316 0 -316 0 0 -126 z "/>
  <path d="M 474.80 2448.80 l -250.80 -251.60 0 -97.60 0.40 -97.60 252 -252.80 252 -253.20 71.60 0 72 0 0 94.80 0 95.20 -206.80 206.80 -206.80 206.80 187.60 189.20 c 102.80 104 196 197.60 206.80 208 l 19.20 18.40 0 92.40 0 92.40 -73.20 0 -73.20 0 -250.80 -251.20 z "/>
  <path d="M 3224 2609.20 l 0 -91.20 105.20 -106.40 c 57.60 -58.80 150.80 -152.80 206.80 -209.20 l 101.60 -102.80 -206.80 -206.80 -206.80 -207.20 0.80 -93.60 1.20 -94 72.40 -1.20 72.80 -0.80 250.40 252.40 250.40 252.80 0 98.40 0 98.40 -250.80 251.20 -250.40 250.80 -73.60 0 -73.20 0 0 -90.80 z "/>
 </g>
</svg>